<?xml version="1.0" encoding="iso-8859-1"?>
<!-- Uploaded to: SVG Repo, www.svgrepo.com, Generator: SVG Repo Mixer Tools -->
<svg height="800px" width="800px" version="1.1" id="Capa_1" xmlns="http://www.w3.org/2000/svg" xmlns:xlink="http://www.w3.org/1999/xlink" 
	 viewBox="0 0 472.053 472.053" xml:space="preserve">
<g>
	<g>
		<path style="fill:#010002;" d="M181.423,12.772l-1.805,85.74c0,3.381-2.292,7.755-6.6,7.755l0,0h-2.309l0,0l0,0
			c-4.308,0-6.6-4.804-6.6-8.275l-6.893-85.895c-1.764,0.008-3.568,0.008-5.454,0.008c-3.292,0-6.373-0.016-9.291-0.016
			l-6.893,87.081c0.024,3.146-2.276,7.096-6.584,7.096l0,0h-2.309l0,0l0,0c-4.308,0-6.6-4.804-6.6-8.275l-1.788-84.879
			c-22.866,3.601-22.858,19.647-22.858,89.935c0,23.711,9.421,44.358,26.247,55.453c2.3,1.52,4.731,2.861,7.308,4.007
			c2.552,1.13,5.251,2.04,8.064,2.764l-7.73,295.571c0,6.17,13.136,11.209,19.305,11.209h10.161c6.17,0,19.305-5.023,19.305-11.193
			l-7.755-296.677c2.837-0.967,5.495-2.211,8.039-3.609c3.13-1.715,6.023-3.739,8.689-6.04
			c13.526-11.681,21.021-30.36,21.021-51.478C208.093,30.151,206.686,15.609,181.423,12.772z"/>
		<path style="fill:#010002;" d="M314.642,193.194v45.764c0,4.845,1.39,9.332,3.682,13.176c3.869-3.503,9.34-3.552,12.063-3.552
			c1.967,0,4.113,0.122,6.381,0.244c2.398,0.13,4.934,0.268,7.584,0.268h2.552c2.642,0,5.186-0.146,7.584-0.268
			c2.268-0.13,4.414-0.244,6.381-0.244c2.731,0,8.194,0.049,12.063,3.552c2.292-3.845,3.682-8.324,3.682-13.176V0.002
			C323.787-0.713,314.642,179.278,314.642,193.194z"/>
		<path style="fill:#010002;" d="M360.869,256.711c-1.837,0-3.829,0.114-5.934,0.228c-2.536,0.146-5.235,0.285-8.023,0.285h-2.561
			c-2.796,0-5.495-0.146-8.023-0.285c-2.113-0.122-4.105-0.228-5.934-0.228c-3.471,0-5.576,0.325-6.804,1.609
			c-1.032,1.081-1.447,2.829-1.447,5.739v180.836c0,12.729,9.966,23.093,22.207,23.093h2.552c12.25,0,22.207-10.356,22.207-23.093
			V264.059c0-2.91-0.423-4.658-1.447-5.739C366.445,257.036,364.348,256.711,360.869,256.711z"/>
	</g>
</g>
</svg>